HIERARCHY
ROOT Hips
{
	OFFSET 0.00000 0.00000 0.00000
	CHANNELS 6 Xposition Yposition Zposition Zrotation Yrotation Xrotation 
	JOINT LHipJoint
	{
		OFFSET 0 0 0
		CHANNELS 3 Zrotation Yrotation Xrotation
		JOINT LeftUpLeg
		{
			OFFSET 1.84395 -1.68683 0.74144
			CHANNELS 3 Zrotation Yrotation Xrotation
			JOINT LeftLeg
			{
				OFFSET 2.27037 -6.23779 0.00000
				CHANNELS 3 Zrotation Yrotation Xrotation
				JOINT LeftFoot
				{
					OFFSET 2.56918 -7.05877 0.00000
					CHANNELS 3 Zrotation Yrotation Xrotation
					JOINT LeftToeBase
					{
						OFFSET 0.22276 -0.61202 1.71784
						CHANNELS 3 Zrotation Yrotation Xrotation
						End Site
						{
							OFFSET 0.00000 -0.00000 0.91613
						}
					}
				}
			}
		}
	}
	JOINT RHipJoint
	{
		OFFSET 0 0 0
		CHANNELS 3 Zrotation Yrotation Xrotation
		JOINT RightUpLeg
		{
			OFFSET -1.76833 -1.68684 0.74144
			CHANNELS 3 Zrotation Yrotation Xrotation
			JOINT RightLeg
			{
				OFFSET -2.49360 -6.85110 0.00000
				CHANNELS 3 Zrotation Yrotation Xrotation
				JOINT RightFoot
				{
					OFFSET -2.55538 -7.02085 0.00000
					CHANNELS 3 Zrotation Yrotation Xrotation
					JOINT RightToeBase
					{
						OFFSET -0.21516 -0.59115 1.68050
						CHANNELS 3 Zrotation Yrotation Xrotation
						End Site
						{
							OFFSET -0.00000 -0.00000 0.89604
						}
					}
				}
			}
		}
	}
	JOINT LowerBack
	{
		OFFSET 0 0 0
		CHANNELS 3 Zrotation Yrotation Xrotation
		JOINT Spine
		{
			OFFSET 0.06382 1.72312 -0.19613
			CHANNELS 3 Zrotation Yrotation Xrotation
			JOINT Spine1
			{
				OFFSET -0.00055 1.73507 0.23859
				CHANNELS 3 Zrotation Yrotation Xrotation
				JOINT Neck
				{
					OFFSET 0 0 0
					CHANNELS 3 Zrotation Yrotation Xrotation
					JOINT Neck1
					{
						OFFSET 0.03638 1.65562 0.09633
						CHANNELS 3 Zrotation Yrotation Xrotation
						JOINT Head
						{
							OFFSET 0.06388 1.62807 -0.32386
							CHANNELS 3 Zrotation Yrotation Xrotation
							End Site
							{
								OFFSET 0.00995 1.67644 -0.12021
							}
						}
					}
				}
				JOINT LeftShoulder
				{
					OFFSET 0 0 0
					CHANNELS 3 Zrotation Yrotation Xrotation
					JOINT LeftArm
					{
						OFFSET 3.09648 1.42991 0.28122
						CHANNELS 3 Zrotation Yrotation Xrotation
						JOINT LeftForeArm
						{
							OFFSET 5.11878 -0.00000 -0.00000
							CHANNELS 3 Zrotation Yrotation Xrotation
							JOINT LeftHand
							{
								OFFSET 3.59971 -0.00000 0.00000
								CHANNELS 3 Zrotation Yrotation Xrotation
								JOINT LeftFingerBase
								{
									OFFSET 0 0 0
									CHANNELS 3 Zrotation Yrotation Xrotation
									JOINT LeftHandIndex1
									{
										OFFSET 0.62877 -0.00000 0.00000
										CHANNELS 3 Zrotation Yrotation Xrotation
										End Site
										{
											OFFSET 0.50693 -0.00000 0.00000
										}
									}
								}
								JOINT LThumb
								{
									OFFSET 0 0 0
									CHANNELS 3 Zrotation Yrotation Xrotation
									End Site
									{
										OFFSET 0.51467 -0.00000 0.51467
									}
								}
							}
						}
					}
				}
				JOINT RightShoulder
				{
					OFFSET 0 0 0
					CHANNELS 3 Zrotation Yrotation Xrotation
					JOINT RightArm
					{
						OFFSET -3.33565 1.14597 0.05047
						CHANNELS 3 Zrotation Yrotation Xrotation
						JOINT RightForeArm
						{
							OFFSET -5.49020 -0.00000 0.00000
							CHANNELS 3 Zrotation Yrotation Xrotation
							JOINT RightHand
							{
								OFFSET -3.20659 -0.00000 -0.00000
								CHANNELS 3 Zrotation Yrotation Xrotation
								JOINT RightFingerBase
								{
									OFFSET 0 0 0
									CHANNELS 3 Zrotation Yrotation Xrotation
									JOINT RightHandIndex1
									{
										OFFSET -0.69188 -0.00000 0.00000
										CHANNELS 3 Zrotation Yrotation Xrotation
										End Site
										{
											OFFSET -0.55781 -0.00000 0.00000
										}
									}
								}
								JOINT RThumb
								{
									OFFSET 0 0 0
									CHANNELS 3 Zrotation Yrotation Xrotation
									End Site
									{
										OFFSET -0.56633 -0.00000 0.56633
									}
								}
							}
						}
					}
				}
			}
		}
	}
}
MOTION
Frames: 12
Frame Time: .0083333
-0.3736 17.5203 7.5709 0 0 0 0 0 0 -21 0 0 0 0 0 0 0 0 0 0 0 0 0 0 21 0 0 0 0 0 0 0 0 0 0 0 0 0 0 0 0 0 0 0 0 0 0 -16 0 0 21 0 0 11 0 0 0 -8 0 0 0 0 0 0 0 0 0 0 0 0 0 0 0 0 0 0 0 0 8 0 0 0 0 0 0 0 0 0 0 0 0 0 0 0 0 0
-0.3736 17.5203 7.5709 -5.4283 -5.8777 8.8268 0.0000 0.0000 0.0000 -26.8034 -39.3808 26.0312 0.0572 -1.5437 -4.2461 -4.0843 43.9215 -49.5649 1.2171 6.9981 19.7097 0.0000 0.0000 0.0000 23.6341 25.3231 5.3930 -0.0098 -0.6401 1.7590 0.4535 -15.3980 -16.2020 -0.0281 1.0817 -2.9737 2.6798 1.5009 1.0438 -0.0764 2.1981 -9.8211 -1.8046 0.8213 -10.9490 -9.2435 -12.6477 -0.9486 11.2567 -18.4683 13.9897 3.6869 -8.9252 6.3102 -0.0000 0.0000 0.0000 -91.7654 11.1919 -19.6928 13.3235 -21.7594 -2.5720 -0.0000 -0.0000 17.9374 18.5888 -8.6444 -2.8938 -7.1250 0.0000 -0.0000 -5.9810 20.8892 3.4739 -0.0000 0.0000 0.0000 96.7231 -8.1963 -25.7109 -13.5100 22.0299 -2.6415 0.0000 0.0000 46.7656 1.2522 -32.8350 -0.6790 7.1250 -0.0000 -0.0000 37.4737 -58.6433 -13.7131
-0.3749 17.5193 7.5741 -5.3471 -5.8564 8.7531 0.0000 0.0000 0.0000 -27.0608 -39.4324 26.2478 0.0571 -1.5413 -4.2396 -4.2112 44.0974 -49.5168 1.1723 6.8725 19.3382 0.0000 0.0000 0.0000 23.5549 25.1587 5.4479 -0.0092 -0.6199 1.7034 0.4545 -15.3485 -16.0857 -0.0286 1.0913 -3.0000 2.5260 1.3747 1.1137 0.0911 2.0330 -9.7782 -1.5240 0.7639 -10.9608 -9.6336 -12.5345 -1.1854 11.2791 -18.3078 14.2412 3.7434 -8.8489 6.4512 -0.0000 -0.0000 0.0000 -92.1449 11.1807 -20.4467 13.3506 -21.7988 -2.5820 -0.0000 -0.0000 18.7451 18.0992 -8.5399 -2.7786 -7.1250 0.0000 -0.0000 -6.3346 21.0258 3.6621 -0.0000 -0.0000 0.0000 96.3723 -8.1409 -25.4578 -13.4400 21.9285 -2.6153 0.0000 0.0000 47.0061 1.1873 -32.8136 -0.6435 7.1250 -0.0000 -0.0000 37.3911 -58.6408 -13.6749
-0.3750 17.5190 7.5774 -5.3121 -5.8832 8.7083 0.0000 0.0000 0.0000 -27.2597 -39.5075 26.4584 0.0572 -1.5434 -4.2453 -4.1922 44.1658 -49.7109 1.1891 6.9200 19.4786 0.0000 0.0000 0.0000 23.5341 25.1438 5.5231 -0.0088 -0.6044 1.6609 0.4549 -15.3442 -16.0694 -0.0263 1.0472 -2.8786 2.4362 1.2639 1.1303 0.2630 1.8912 -9.7213 -1.2747 0.7132 -10.9200 -10.0134 -12.4374 -1.4307 11.3092 -18.1636 14.4546 3.8004 -8.7806 6.5830 -0.0000 0.0000 0.0000 -92.5213 11.1021 -21.1482 13.3495 -21.7971 -2.5816 -0.0000 -0.0000 19.1418 17.9320 -8.6950 -2.8007 -7.1250 0.0000 -0.0000 -6.4537 20.8736 3.7542 -0.0000 0.0000 0.0000 96.0049 -8.0875 -25.0450 -13.3935 21.8610 -2.5980 0.0000 0.0000 47.0364 1.1615 -32.8180 -0.6296 7.1250 -0.0000 -0.0000 37.3710 -58.6502 -13.6748
-0.3746 17.5187 7.5797 -5.3476 -5.9175 8.7066 0.0000 0.0000 0.0000 -27.2981 -39.5505 26.5534 0.0571 -1.5425 -4.2429 -4.1305 44.1634 -49.8957 1.2133 6.9874 19.6781 0.0000 0.0000 0.0000 23.5850 25.1885 5.5608 -0.0087 -0.6017 1.6534 0.4507 -15.3333 -16.1159 -0.0258 1.0373 -2.8516 2.4359 1.1667 1.1450 0.4353 1.7739 -9.6570 -1.0773 0.6667 -10.8657 -10.3017 -12.3743 -1.8120 11.2303 -18.0427 14.7001 3.7992 -8.7196 6.7323 0.0000 0.0000 0.0000 -92.8669 10.9865 -21.7007 13.3454 -21.7912 -2.5801 -0.0000 -0.0000 19.2363 17.9172 -8.8859 -2.8591 -7.1250 0.0000 -0.0000 -6.4626 20.6756 3.7884 0.0000 0.0000 0.0000 95.6683 -7.9983 -24.6233 -13.3695 21.8263 -2.5891 0.0000 0.0000 46.9999 1.1266 -32.8094 -0.6105 7.1250 -0.0000 -0.0000 37.3292 -58.6510 -13.6574
-0.3782 17.5187 7.5861 -5.5902 -5.9065 8.7760 0.0000 0.0000 0.0000 -26.9670 -39.5494 26.5383 0.0591 -1.5688 -4.3153 -4.1978 44.2499 -49.8596 1.1947 6.9357 19.5249 0.0000 0.0000 0.0000 23.9080 25.2778 5.6294 -0.0077 -0.5682 1.5614 0.4688 -15.4691 -16.1011 -0.0202 0.9171 -2.5208 2.6173 1.0697 1.1606 0.6531 1.6746 -9.6398 -0.9351 0.6141 -10.8624 -10.5350 -12.3361 -2.3214 11.0544 -17.9423 15.0564 3.7477 -8.6647 6.9278 -0.0000 -0.0000 0.0000 -93.2014 10.8539 -22.2037 13.3393 -21.7823 -2.5778 -0.0000 -0.0000 19.1376 18.1482 -8.4064 -2.7435 -7.1250 0.0000 -0.0000 -6.3006 21.1625 3.6226 -0.0000 -0.0000 0.0000 95.3639 -7.9069 -24.3237 -13.3102 21.7400 -2.5670 0.0000 0.0000 46.8353 1.1038 -32.9439 -0.6003 7.1250 -0.0000 -0.0000 37.4403 -58.7634 -13.8095
-0.3831 17.5192 7.5995 -5.9870 -5.8796 8.8909 0.0000 0.0000 0.0000 -26.5306 -39.6652 26.6629 0.0632 -1.6220 -4.4622 -4.2973 44.4714 -49.9931 1.1705 6.8675 19.3234 0.0000 0.0000 0.0000 24.4271 25.3722 5.7562 -0.0057 -0.4884 1.3420 0.5066 -15.6982 -15.9623 -0.0099 0.6431 -1.7672 2.8844 0.8512 1.1629 1.1212 1.4393 -9.6629 -0.5580 0.5001 -10.9079 -11.2651 -12.1609 -2.9078 10.9806 -17.6253 15.4825 3.8195 -8.5226 7.1905 -0.0000 -0.0000 0.0000 -93.9935 10.2636 -24.7718 13.0267 -21.3264 -2.4630 -0.0000 -0.0000 20.4490 18.6814 -7.8527 -2.6449 -7.1250 0.0000 -0.0000 -5.9198 21.7131 3.3271 -0.0000 -0.0000 0.0000 94.6476 -7.8519 -23.6422 -13.1876 21.5615 -2.5218 0.0000 0.0000 46.5064 1.2366 -33.2974 -0.6789 7.1250 -0.0000 -0.0000 37.9204 -59.0143 -14.2551
-0.3845 17.5196 7.6074 -6.1615 -5.8802 8.9474 0.0000 0.0000 0.0000 -26.4020 -39.7802 26.7816 0.0645 -1.6382 -4.5067 -4.3009 44.5799 -50.1969 1.1686 6.8620 19.3071 0.0000 0.0000 0.0000 24.6485 25.4116 5.8243 -0.0047 -0.4434 1.2183 0.5208 -15.7715 -15.8841 -0.0058 0.4919 -1.3515 3.0847 0.8675 1.1765 1.1468 1.4811 -9.7634 -0.6468 0.5013 -11.0279 -11.3312 -12.1486 -2.7757 11.0235 -17.6273 15.5063 3.8506 -8.5299 7.1856 0.0000 0.0000 0.0000 -93.9925 9.4609 -28.2568 12.3802 -20.3724 -2.2329 -0.0000 -0.0000 23.6590 19.0132 -8.2436 -2.8285 -7.1250 0.0000 -0.0000 -5.6765 21.2852 3.2443 0.0000 0.0000 0.0000 94.6688 -8.0457 -23.6226 -13.1968 21.5749 -2.5252 0.0000 0.0000 46.2325 1.3905 -33.5017 -0.7676 7.1250 -0.0000 -0.0000 38.2741 -59.1408 -14.5328
-0.3841 17.5197 7.6081 -6.1591 -5.8774 8.9506 0.0000 0.0000 0.0000 -26.3996 -39.7798 26.7559 0.0635 -1.6256 -4.4719 -4.2897 44.5511 -50.1739 1.1662 6.8551 19.2868 0.0000 0.0000 0.0000 24.6402 25.4208 5.8180 -0.0048 -0.4479 1.2307 0.5151 -15.7433 -15.9177 -0.0049 0.4513 -1.2400 3.0846 0.8635 1.2132 1.1523 1.4782 -9.7712 -0.6411 0.4997 -11.0596 -11.3454 -12.1450 -2.8114 11.0082 -17.6194 15.5440 3.8458 -8.5257 7.2030 0.0000 0.0000 0.0000 -94.0059 9.4700 -28.3331 12.3770 -20.3677 -2.2318 -0.0000 -0.0000 23.6737 18.9868 -8.2755 -2.8352 -7.1250 0.0000 -0.0000 -5.6954 21.2532 3.2593 0.0000 0.0000 0.0000 94.6471 -8.0543 -23.5808 -13.2160 21.6029 -2.5323 0.0000 0.0000 46.2103 1.4400 -33.4949 -0.7948 7.1250 -0.0000 -0.0000 38.3143 -59.1241 -14.5354
-0.3841 17.5198 7.6086 -6.1324 -5.8571 8.9598 0.0000 0.0000 0.0000 -26.3988 -39.7732 26.6974 0.0625 -1.6132 -4.4379 -4.3205 44.5459 -50.0701 1.1568 6.8285 19.2082 0.0000 0.0000 0.0000 24.6073 25.4417 5.8044 -0.0050 -0.4550 1.2503 0.5165 -15.7711 -15.9544 -0.0042 0.4185 -1.1501 3.0716 0.8675 1.2370 1.1401 1.4829 -9.7779 -0.6479 0.5021 -11.0814 -11.3831 -12.1361 -2.8242 11.0304 -17.6094 15.5681 3.8582 -8.5205 7.2173 -0.0000 -0.0000 0.0000 -93.9890 10.3903 -24.9064 12.9933 -21.2774 -2.4508 -0.0000 -0.0000 20.2461 18.8735 -7.4890 -2.5512 -7.1250 0.0000 -0.0000 -5.7836 22.0845 3.2007 -0.0000 -0.0000 0.0000 94.6493 -8.0262 -23.6350 -13.2317 21.6257 -2.5380 0.0000 0.0000 46.2250 1.4902 -33.4739 -0.8221 7.1250 -0.0000 -0.0000 38.3404 -59.0961 -14.5208
-0.3838 17.5197 7.6099 -6.0406 -5.8549 8.9637 0.0000 0.0000 0.0000 -26.5513 -39.8349 26.7421 0.0620 -1.6067 -4.4198 -4.2918 44.5539 -50.1731 1.1688 6.8626 19.3089 0.0000 0.0000 0.0000 24.4939 25.4275 5.8016 -0.0048 -0.4465 1.2268 0.5211 -15.8030 -15.9465 -0.0049 0.4501 -1.2367 3.0149 0.9040 1.2329 1.0618 1.5217 -9.7998 -0.7045 0.5213 -11.1012 -11.4254 -12.1199 -2.6650 11.1394 -17.6091 15.4853 3.9105 -8.5238 7.1769 -0.0000 -0.0000 0.0000 -93.8660 10.8993 -23.1044 13.3109 -21.7410 -2.5673 -0.0000 -0.0000 18.5619 18.8472 -7.0332 -2.3933 -7.1250 0.0000 -0.0000 -5.8083 22.5641 3.1507 -0.0000 -0.0000 0.0000 94.7489 -8.0392 -23.7888 -13.2525 21.6560 -2.5457 0.0000 0.0000 46.1843 1.5234 -33.4732 -0.8404 7.1250 -0.0000 -0.0000 38.3712 -59.0880 -14.5271
-0.3831 17.5195 7.6121 -5.9817 -5.8647 8.9600 0.0000 0.0000 0.0000 -26.7446 -39.9349 26.9052 0.0626 -1.6143 -4.4407 -4.2227 44.5725 -50.4174 1.1896 6.9212 19.4821 0.0000 0.0000 0.0000 24.4019 25.3194 5.7764 -0.0044 -0.4307 1.1834 0.5188 -15.7444 -15.8591 -0.0061 0.5052 -1.3881 3.0103 0.9629 1.2171 0.9557 1.5919 -9.8284 -0.8230 0.5495 -11.1187 -11.3882 -12.1243 -2.4506 11.2115 -17.6423 15.4026 3.9394 -8.5440 7.1202 -0.0000 0.0000 0.0000 -93.6755 10.9891 -22.8318 13.3034 -21.7301 -2.5645 -0.0000 -0.0000 18.5278 18.8222 -6.9263 -2.3538 -7.1250 0.0000 -0.0000 -5.8281 22.6774 3.1464 -0.0000 0.0000 0.0000 94.9069 -8.0893 -23.9812 -13.2677 21.6781 -2.5513 0.0000 0.0000 46.1161 1.5253 -33.4533 -0.8410 7.1250 -0.0000 -0.0000 38.3528 -59.0719 -14.5036
